<svg width="24" height="24" viewBox="0 0 24 24" fill="none" xmlns="http://www.w3.org/2000/svg">
<path fill-rule="evenodd" clip-rule="evenodd" d="M12.0002 2C6.4773 2 2.00018 6.47745 2.00018 12C2.00018 17.5225 6.4773 22 12.0002 22C17.5224 22 22.0002 17.5222 22.0002 12C22.0002 6.47779 17.5224 2 12.0002 2ZM12.0002 3.5C16.694 3.5 20.5002 7.30621 20.5002 12C20.5002 16.6938 16.694 20.5 12.0002 20.5C7.30575 20.5 3.50018 16.6941 3.50018 12C3.50018 7.30586 7.30575 3.5 12.0002 3.5ZM8.97649 9.95572C8.68335 9.73723 8.26664 9.76054 7.9998 10.0262C7.70627 10.3185 7.70525 10.7934 7.99751 11.0869L11.4685 14.5729L11.5527 14.6459C11.8468 14.8649 12.265 14.8405 12.5315 14.5729L16.0025 11.0869L16.0749 11.0026C16.2921 10.7085 16.267 10.2919 16.0002 10.0262L15.9159 9.95379C15.6218 9.73657 15.2052 9.76167 14.9395 10.0285L11.999 12.98L9.06046 10.0285L8.97649 9.95572Z" fill="#200E32"/>
</svg>
