<svg width="24" height="24" viewBox="0 0 24 24" fill="none" xmlns="http://www.w3.org/2000/svg">
<path fill-rule="evenodd" clip-rule="evenodd" d="M12.058 2.00022C8.54635 1.98611 5.28554 3.80698 3.46059 6.80008C1.63541 9.79356 1.51288 13.5226 3.13765 16.6291L3.32147 16.9875C3.39175 17.1192 3.40531 17.2613 3.36458 17.3926C3.10204 18.0864 2.87136 18.8357 2.6873 19.5969L2.66776 19.7609C2.66776 20.5263 3.07616 21.0522 3.88671 21.0343L4.02167 21.018C4.75798 20.8554 5.4831 20.6459 6.19261 20.3909C6.28665 20.3671 6.4407 20.3763 6.57971 20.4332L7.26224 20.8194C7.26378 20.8242 7.26493 20.8278 7.27208 20.8319L7.31788 20.848C10.9929 22.7803 15.4812 22.2472 18.5997 19.5079C21.7187 16.7681 22.8199 12.3901 21.3675 8.50385C19.9153 4.618 16.2115 2.03074 12.058 2.00022ZM11.7676 3.399L12.0484 3.39461C15.6231 3.4218 18.8109 5.64859 20.0606 8.99232C21.3101 12.3357 20.3627 16.1021 17.6789 18.4596L17.4587 18.6466C14.8627 20.778 11.2583 21.2076 8.23277 19.7468L7.94503 19.6026L7.95737 19.6042L7.93916 19.5992L7.51685 19.3569C7.36478 19.2709 7.24415 19.2059 7.14693 19.159C6.68377 18.9681 6.21361 18.9399 5.77141 19.0617L5.35279 19.2055C5.07613 19.2969 4.80379 19.3794 4.5328 19.4541L4.13775 19.5573L4.04363 19.9249C4.21427 19.2192 4.42811 18.5246 4.68396 17.8451C4.8486 17.3182 4.79826 16.7905 4.55762 16.3402L4.3767 15.9873C2.97634 13.3099 3.08175 10.1019 4.65203 7.52647C6.17345 5.03118 8.85502 3.48234 11.7676 3.399ZM6.47459 12.0002C6.47459 11.37 6.98585 10.8596 7.61596 10.8596C8.24606 10.8596 8.75732 11.37 8.75732 12.0002C8.75732 12.6304 8.24606 13.1408 7.61596 13.1408C6.98585 13.1408 6.47459 12.6304 6.47459 12.0002ZM10.9114 12.0002C10.9114 11.37 11.4227 10.8596 12.0528 10.8596C12.6829 10.8596 13.1942 11.37 13.1942 12.0002C13.1942 12.6304 12.6829 13.1408 12.0528 13.1408C11.4227 13.1408 10.9114 12.6304 10.9114 12.0002ZM16.4898 10.8596C15.8597 10.8596 15.3484 11.37 15.3484 12.0002C15.3484 12.6304 15.8597 13.1408 16.4898 13.1408C17.1199 13.1408 17.6311 12.6304 17.6311 12.0002C17.6311 11.37 17.1199 10.8596 16.4898 10.8596Z" fill="black"/>
</svg>
