<svg width="24" height="24" viewBox="0 0 24 24" fill="none" xmlns="http://www.w3.org/2000/svg">
<g clip-path="url(#clip0_426_7502)">
<path fill-rule="evenodd" clip-rule="evenodd" d="M18.4199 7.26898C18.8553 6.8335 18.8553 6.12746 18.4199 5.69199C17.9844 5.25652 17.2784 5.25652 16.8429 5.69199L12.112 10.4229L7.26894 5.57992C6.83346 5.14445 6.12743 5.14445 5.69195 5.57992C5.25648 6.01539 5.25648 6.72143 5.69195 7.1569L10.535 11.9999L5.69195 16.8429C5.25648 17.2784 5.25648 17.9844 5.69195 18.4199C6.12742 18.8554 6.83346 18.8554 7.26893 18.4199L12.1119 13.5769L16.8429 18.3078C17.2784 18.7433 17.9844 18.7433 18.4199 18.3078C18.8553 17.8724 18.8553 17.1663 18.4199 16.7309L13.6889 11.9999L18.4199 7.26898Z" fill="#200E32"/>
</g>
<defs>
<clipPath id="clip0_426_7502">
<rect width="24" height="24" fill="white"/>
</clipPath>
</defs>
</svg>
